<svg id="Capa_1" enable-background="new 0 0 512 512" height="512" viewBox="0 0 512 512" width="512" xmlns="http://www.w3.org/2000/svg"><g><g><g><g><g><g><g><g><g><g><g><g><g><g><path d="m279.204 284.951c-11.033-2.123-19.006-11.778-19.006-23.013v-64.365h-89.592v64.365c0 11.478-8.282 20.953-19.006 23.012 0 0 31.851 67.148 63.802 67.297 33.399.156 66.898-66.7 63.802-67.296z" fill="#ffddce"/></g></g></g></g></g></g></g></g><g><g><g><g><path d="m233.583 239.467c18.02-15.84 27.935-39.092 28.346-63.208-.356-120.851-.184-116.7-.43-121.133-.614-11.345-3.28-21.87-7.574-31.367-11.979-5.73-25.332-8.896-39.087-8.992-46.044.716-87.66 35.901-87.448 86.638l.071 17.009.03 7.116-5.987.025c-8.777.037-15.862 7.27-15.825 16.154l.074 17.826c.037 8.884 7.182 16.055 15.959 16.018l6.01-.026c.592 23.343 10.378 45.772 27.952 60.958 11.508 9.944 26.795 18.839 46.187 21.911 12.695-4.539 23.224-11.46 31.722-18.929z" fill="#ffddce"/><path d="m325.051 140.773c-.037-8.884-7.182-16.055-15.959-16.018l-5.987.026-.101-24.125c-.168-40.303-26.729-70.711-60.928-81.554 7.286 12.326 11.573 26.834 11.64 42.926l.285 112.751c-.398 23.348-9.996 45.859-27.443 61.195-9.32 8.193-21.164 15.704-35.725 19.952 7.596 2.217 15.927 3.545 25.023 3.609 26.174-.407 45.945-11.216 59.99-23.562 17.446-15.335 27.045-37.847 27.443-61.195l6.01-.026c8.777-.037 15.862-7.27 15.825-16.154z" fill="#ffcbbe"/><g><g><path d="m303.232 110.227v66.343h17.619c9.88 0 17.889-8.009 17.889-17.889v-30.566c0-9.88-8.009-17.889-17.889-17.889h-17.619z" fill="#9bc4f9"/></g><g><path d="m127.572 110.227v66.343h-17.619c-9.88 0-17.889-8.009-17.889-17.889v-30.566c0-9.88 8.009-17.889 17.889-17.889h17.619z" fill="#9bc4f9"/></g></g><path d="m212.354 72.014h6.096c8.275.035 16.439-1.499 24.317-4.031 4.446-1.429 9.102-2.159 13.808-2.14l.335.002c1.62.007 3.206.154 4.749.43-.026-8.934-.055-9.273-.16-11.149-.799-14.764-5.073-28.139-11.887-39.666.005.002.011.003.016.005-1.68-2.842-3.515-5.57-5.491-8.179-3.517-4.642-9.073-7.286-14.896-7.286h-53.866c-37.929 0-68.677 30.748-68.677 68.677v45.386c0 6.667 4.219 12.603 10.515 14.795l16.917 5.89c5.913 2.059 12.088-2.337 12.078-8.598l-.037-32.004c-.065-15.565 12.347-28.235 27.724-28.301l.335-.002c4.706-.02 9.362.711 13.808 2.14 7.877 2.531 16.041 4.066 24.316 4.031z" fill="#756e78"/><path d="m297.328 35.822h-.902c-4.995 0-9.044-4.049-9.044-9.044 0-14.789-11.989-26.778-26.778-26.778h-33.988c16.392 15.127 26.995 36.611 27.101 62.027l.01 3.905c.947-.057 1.896-.092 2.848-.088l.335.002c15.377.066 27.789 12.737 27.724 28.301l-.031 32.006c-.008 6.26 6.167 10.655 12.079 8.596l16.912-5.89c6.295-2.192 10.514-8.129 10.514-14.795v-51.465c-.002-14.789-11.991-26.777-26.78-26.777z" fill="#665e66"/></g></g></g></g></g></g><g><g><g><g><g><g><g><g><g><g><g><g><path d="m250.873 307.545c-17.896 11.075-35.472 20.171-35.472 20.171s-64.654-44.971-64.935-44.917l-25.282 4.865c-66.313 12.763-114.24 70.792-114.24 138.324v31.01c0 19.068 15.457 34.525 34.525 34.525h315.841v-40.331c0-67.779-45.753-126.485-110.437-143.647zm-72.167 183.977 3.949-6.27h65.494l3.949 6.27z" fill="#e07f84"/><g><path d="m305.619 287.665-22.208-4.274c-7.8 8.383-23.588 18.83-37.991 27.476 63.092 15.076 108.062 71.576 108.062 136.991v43.665h31.852c19.068 0 34.525-15.457 34.525-34.525v-31.01c.001-67.532-47.926-125.561-114.24-138.323z" fill="#db636e"/></g></g></g></g></g></g></g></g><g><path d="m140.418 275.784-21.593 13.241 49.863 49.94c4.753 4.628 12.236 4.913 17.327.66l29.387-24.547-61.78-39.192c-4.022-2.553-9.145-2.592-13.204-.102z" fill="#d84a54"/><g><path d="m290.386 275.784 21.593 13.241-49.863 49.94c-4.753 4.628-12.236 4.913-17.327.66l-29.387-24.547 61.78-39.192c4.021-2.553 9.144-2.592 13.204-.102z" fill="#d84a54"/><path d="m215.402 315.076-28.937 24.167 14.744 25.323h14.193 14.193l14.744-25.323z" fill="#d1ecf9"/><path d="m252.097 491.522-22.502-126.956h-14.193-14.193l-22.503 126.956z" fill="#f2f9ff"/></g></g></g></g></g></g></g></g><path d="m436.89 413.815c0-42.237-25.602-78.495-62.134-94.101-40.526 12.09-70.07 49.645-70.07 94.101s29.545 82.01 70.07 94.101c36.532-15.607 62.134-51.864 62.134-94.101z" fill="#9bc4f9"/><path d="m402.871 315.629c-12.468 0-24.394 2.325-35.367 6.563 36.75 14.195 62.818 49.864 62.818 91.622s-26.068 77.427-62.818 91.622c10.973 4.239 22.899 6.563 35.367 6.563 54.226 0 98.185-43.959 98.185-98.185s-43.959-98.185-98.185-98.185z" fill="#7fb2f9"/><g><g><g><path d="m448.451 455.141c-.023 0-.045 0-.068 0-4.27-.037-7.701-3.528-7.664-7.797.033-3.902.068-8.224.101-12.733h-27.002c-2.735 0-5.267-1.445-6.657-3.8-1.391-2.355-1.433-5.271-.112-7.665 5.504-9.977 23.77-42.907 27.72-47.753 3.612-4.431 8.524-6.224 13.141-4.794 4.654 1.441 7.958 5.929 8.417 11.431.206 2.481.156 20.406.058 37.119h1.113c4.27 0 7.731 3.461 7.731 7.731s-3.461 7.731-7.731 7.731h-1.216c-.043 5.794-.082 10.466-.103 12.866-.036 4.246-3.49 7.664-7.728 7.664zm-21.496-35.992h13.967c.053-9.191.09-18.049.091-24.69-3.757 6.414-8.844 15.364-14.058 24.69z" fill="#eaf2ff"/></g></g><path d="m457.499 419.149h-1.113c.097-16.713.148-34.638-.058-37.119-.459-5.502-3.763-9.99-8.417-11.431-4.618-1.43-9.529.362-13.141 4.794-1.337 1.64-4.314 6.497-7.881 12.593 2.183 8.027 3.373 16.462 3.43 25.167 3.995-7.095 7.752-13.672 10.694-18.694-.001 6.642-.038 15.499-.091 24.69h-10.743c-.282 5.275-.981 10.44-2.064 15.462h12.705c-.033 4.509-.068 8.831-.101 12.733-.037 4.269 3.394 7.76 7.664 7.797h.068c4.238 0 7.693-3.417 7.729-7.664.021-2.4.06-7.072.103-12.866h1.216c4.27 0 7.731-3.461 7.731-7.731s-3.462-7.731-7.731-7.731z" fill="#dbe8f9"/><g><g><path d="m367.263 457.526c-13.398 0-14.402-.335-15.449-.684-2.552-.852-4.46-2.784-5.235-5.304-1.321-4.295.653-6.879 4.977-12.541 3.533-4.626 10.109-13.237 21.129-28.982 3.187-4.552 5.242-8.61 6.115-12.067l.219-1.713c-.222-5.357-4.65-9.645-10.06-9.645-4.802 0-8.956 3.41-9.879 8.108-.822 4.19-4.887 6.918-9.076 6.096-4.19-.822-6.919-4.886-6.096-9.076 2.343-11.93 12.879-20.59 25.051-20.59 14.077 0 25.53 11.452 25.53 25.53 0 .327-.021.654-.062.979l-.344 2.691c-.033.258-.078.514-.137.767-1.268 5.469-4.159 11.453-8.593 17.787-7.398 10.57-12.833 17.987-16.709 23.164 6.229-.009 13.819-.067 20.966-.157.033-.001.066-.001.099-.001 4.225 0 7.675 3.397 7.728 7.634.053 4.269-3.364 7.773-7.633 7.826-9.976.126-17.231.178-22.541.178z" fill="#eaf2ff"/></g></g></g></g></g><path d="m323.278 176.407v11.811c0 9.316-7.579 16.896-16.896 16.896h-49.547c-4.27 0-7.731 3.461-7.731 7.731s3.461 7.731 7.731 7.731h49.547c17.842 0 32.358-14.515 32.358-32.358v-29.537c-.001 9.057-6.731 16.542-15.462 17.726z" fill="#dbe8f9"/><path d="m276.136 225.477h-20.197c-7.705 0-13.952-6.247-13.952-13.952 0-7.705 6.247-13.952 13.952-13.952h20.197c7.706 0 13.952 6.247 13.952 13.952 0 7.706-6.247 13.952-13.952 13.952z" fill="#db636e"/></g></svg>